<?xml version="1.0" standalone="no"?>
<!DOCTYPE svg PUBLIC "-//W3C//DTD SVG 20010904//EN"
 "http://www.w3.org/TR/2001/REC-SVG-20010904/DTD/svg10.dtd">
<svg version="1.0" xmlns="http://www.w3.org/2000/svg"
 width="260.000000pt" height="260.000000pt" viewBox="0 0 260.000000 260.000000"
 preserveAspectRatio="xMidYMid meet">
<metadata>
Created by potrace 1.11, written by Peter Selinger 2001-2013
</metadata>
<g transform="translate(0.000000,260.000000) scale(0.100000,-0.100000)"
fill="#000000" stroke="none">
<path d="M1074 2569 c-554 -104 -976 -544 -1053 -1099 -9 -69 -7 -311 4 -370
39 -217 118 -404 239 -570 103 -141 303 -309 461 -387 263 -130 578 -169 854
-106 470 107 845 464 969 923 120 446 -4 917 -328 1240 -103 103 -112 111
-198 169 -266 182 -633 259 -948 200z"/>
</g>
</svg>
