<?xml version="1.0" encoding="UTF-8"?>
<svg width="367px" height="730px" viewBox="0 0 367 730" version="1.1" xmlns="http://www.w3.org/2000/svg" xmlns:xlink="http://www.w3.org/1999/xlink">
    <!-- Generator: Sketch 52.5 (67469) - http://www.bohemiancoding.com/sketch -->
    <title>iphoneX-empty</title>
    <desc>Created with Sketch.</desc>
    <g id="phone-and-comp-mockup" stroke="none" stroke-width="1" fill="none" fill-rule="evenodd">
        <g id="iphone_xs-copy-6" transform="translate(-250.000000, -105.000000)" fill-rule="nonzero">
            <g id="iphoneX-empty" transform="translate(250.000000, 105.000000)">
                <path d="M74.7887856,1.5 C52.2563671,1.5 42.4800204,3.38789965 32.3557186,8.8024355 C23.4911954,13.5432344 16.5432344,20.4911954 11.8024355,29.3557186 C6.38789965,39.4800204 4.5,49.2563671 4.5,71.7887856 L4.5,658.211214 C4.5,680.743633 6.38789965,690.51998 11.8024355,700.644281 C16.5432344,709.508805 23.4911954,716.456766 32.3557186,721.197564 C42.4800204,726.6121 52.2563671,728.5 74.7887856,728.5 L291.211214,728.5 C313.743633,728.5 323.51998,726.6121 333.644281,721.197564 C342.508805,716.456766 349.456766,709.508805 354.197564,700.644281 C359.6121,690.51998 361.5,680.743633 361.5,658.211214 L361.5,71.7887856 C361.5,49.2563671 359.6121,39.4800204 354.197564,29.3557186 C349.456766,20.4911954 342.508805,13.5432344 333.644281,8.8024355 C323.51998,3.38789965 313.743633,1.5 291.211214,1.5 L74.7887856,1.5 Z M343.39268,58.8239229 C343.552782,59.2318655 343.536823,59.6322847 343.393208,59.9922227 L343.393208,85.6281108 C343.393208,85.8175855 343.393208,85.8175855 343.393208,86.0070602 C343.393208,86.17931 343.393208,86.17931 343.393208,86.3515598 L343.393208,652.088679 C343.393208,655.67578 343.393208,655.67578 343.393208,659.202594 C343.393208,662.729408 343.393208,662.729408 343.393208,666.316509 C343.393208,670.10882 343.373152,671.769434 343.271298,673.86497 C343.136497,676.638371 342.867098,679.11678 342.404246,681.55541 C339.88771,694.436083 332.267737,703.497391 320.130843,707.970204 C315.819273,709.792156 310.999744,710.5 304.889766,710.5 C295.398623,710.5 295.398623,710.5 285.667198,710.5 C285.637163,710.5 285.637163,710.5 285.547057,710.5 C285.456952,710.5 285.456952,710.5 285.426916,710.5 L80.4662917,710.5 C80.4362564,710.5 80.4362564,710.5 80.3461506,710.5 C80.2560448,710.5 80.2560448,710.5 80.2260096,710.5 C70.7348669,710.5 70.7348669,710.5 61.0034422,710.5 L60.9318374,710.49829 C54.6025738,710.195808 50.2453153,709.547958 45.8022419,707.986385 C33.5076988,703.2019 25.9820907,694.316276 23.4900542,681.560945 C22.6632549,677.412022 22.5,674.012252 22.5,666.316509 C22.5,662.729408 22.5,662.729408 22.5,659.202594 C22.5,655.67578 22.5,655.67578 22.5,652.088679 L22.5,86.5927094 C22.5,86.4118472 22.5,86.4118472 22.5,86.2309849 C22.5,86.0501227 22.5,86.0501227 22.5,85.8692604 L22.5,59.8250964 C22.5,59.6442341 22.5,59.6442341 22.5,59.4633719 C22.5,59.2825096 22.5,59.2825096 22.5,59.1016474 C22.5,55.072822 22.7955913,51.6909139 23.488962,48.4445901 C26.0054979,35.5639168 33.6254714,26.5026092 45.7623653,22.029796 C50.0739349,20.2078435 54.8934641,19.5 61.0034422,19.5 C67.5210939,19.5 67.5210939,19.5 74.0988162,19.5 C80.6765385,19.5 80.6765385,19.5 87.1941902,19.5 C89.3567291,19.5 89.3567291,19.5 91.5192679,19.5 C95.4104058,19.5 97.7591793,21.7730665 98.0536909,25.6376003 C98.3540435,28.049097 98.3540435,28.049097 98.6543961,30.4605937 C98.7144666,30.942893 98.7144666,30.942893 98.768183,31.3798334 C99.8759815,38.495343 104.941832,43.7632483 111.950428,45.0824184 C113.766644,45.386214 115.130619,45.544164 116.268323,45.544164 L249.624885,45.544164 C250.762589,45.544164 252.126564,45.386214 253.90422,45.0893872 C260.715143,43.7663842 265.797611,38.4811984 267.151649,31.2480142 C267.392747,30.2801396 267.492697,29.4776496 267.646274,27.6280675 C267.728065,26.643037 267.769391,26.2006354 267.832403,25.7083601 C268.126051,21.8771474 270.348137,19.806332 274.258482,19.5044501 L274.37394,19.5 C275.455209,19.5 275.455209,19.5 276.536479,19.5 C277.617748,19.5 277.617748,19.5 278.699018,19.5 C285.216669,19.5 285.216669,19.5 291.794392,19.5 C298.372114,19.5 298.372114,19.5 304.961371,19.5017101 C311.290634,19.8041918 315.647893,20.4520423 320.090966,22.0136154 C332.385509,26.7981002 339.911117,35.6837242 342.399015,48.4189994 C343.068905,51.5564406 343.378286,55.0469063 343.39268,58.8239229 Z" id="Combined-Shape" stroke="#CCCCCC" stroke-width="3" fill="#FFFFFF"></path>
                <g id="phone" fill="#CCCCCC">
                    <path d="M3,97.25 L3,71.7887856 C3,46.8262609 5.59911711,37.7742462 10.4797157,28.6483203 C15.3603143,19.5223944 22.5223944,12.3603143 31.6483203,7.47971571 C40.7742462,2.59911711 49.8262609,4.5855414e-15 74.7887856,0 L291.211214,5.80070572e-15 C316.173739,1.21516432e-15 325.225754,2.59911711 334.35168,7.47971571 C343.477606,12.3603143 350.639686,19.5223944 355.520284,28.6483203 C360.400883,37.7742462 363,46.8262609 363,71.7887856 L363,168 L365.485071,168.621268 C366.375405,168.843851 367,169.643818 367,170.561553 L367,248.657671 C367,250.034274 366.063108,251.234223 364.727607,251.568098 L363,252 L363,658.211214 C363,683.173739 360.400883,692.225754 355.520284,701.35168 C350.639686,710.477606 343.477606,717.639686 334.35168,722.520284 C325.225754,727.400883 316.173739,730 291.211214,730 L74.7887856,730 C49.8262609,730 40.7742462,727.400883 31.6483203,722.520284 C22.5223944,717.639686 15.3603143,710.477606 10.4797157,701.35168 C5.59911711,692.225754 3,683.173739 3,658.211214 L3,269.75 L2.27239312,269.568098 C0.936892121,269.234223 -3.49664143e-14,268.034274 -3.8191672e-14,266.657671 L-4.28546088e-14,218.561553 C-4.33745552e-14,217.643818 0.624594747,216.843851 1.51492875,216.621268 L3,216.25 L3,203.75 L2.27239312,203.568098 C0.936892121,203.234223 -4.15758005e-14,202.034274 -4.17443857e-14,200.657671 L-4.26325641e-14,152.561553 C-4.27449543e-14,151.643818 0.624594747,150.843851 1.51492875,150.621268 L3,150.25 L3,127.75 L2.27239312,127.568098 C0.936892121,127.234223 -4.33521573e-14,126.034274 -4.35207426e-14,124.657671 L-4.08562073e-14,99.5615528 C-4.09685975e-14,98.6438175 0.624594747,97.8438513 1.51492875,97.6212678 L3,97.25 Z M74.7887856,3 C52.4828142,3 42.9404038,4.84272446 33.0631169,10.1251553 C24.4599964,14.7261545 17.7261545,21.4599964 13.1251553,30.0631169 C7.84272446,39.9404038 6,49.4828142 6,71.7887856 L6,658.211214 C6,680.517186 7.84272446,690.059596 13.1251553,699.936883 C17.7261545,708.540004 24.4599964,715.273846 33.0631169,719.874845 C42.9404038,725.157276 52.4828142,727 74.7887856,727 L291.211214,727 C313.517186,727 323.059596,725.157276 332.936883,719.874845 C341.540004,715.273846 348.273846,708.540004 352.874845,699.936883 C358.157276,690.059596 360,680.517186 360,658.211214 L360,71.7887856 C360,49.4828142 358.157276,39.9404038 352.874845,30.0631169 C348.273846,21.4599964 341.540004,14.7261545 332.936883,10.1251553 C323.059596,4.84272446 313.517186,3 291.211214,3 L74.7887856,3 Z" id="Combined-Shape"></path>
                    <path d="M226,36 C222.686292,36 220,33.3137085 220,30 C220,26.6862915 222.686292,24 226,24 C229.313708,24 232,26.6862915 232,30 C232,33.3137085 229.313708,36 226,36 Z M164,27 L202,27 C203.656854,27 205,28.3431458 205,30 C205,31.6568542 203.656854,33 202,33 L164,33 C162.343146,33 161,31.6568542 161,30 C161,28.3431458 162.343146,27 164,27 Z" id="Combined-Shape"></path>
                </g>
            </g>
        </g>
    </g>
</svg>