<?xml version="1.0" encoding="UTF-8"?>
<svg width="892px" height="507px" viewBox="0 0 892 507" version="1.1" xmlns="http://www.w3.org/2000/svg" xmlns:xlink="http://www.w3.org/1999/xlink">
    <!-- Generator: Sketch 52.5 (67469) - http://www.bohemiancoding.com/sketch -->
    <title>mac</title>
    <desc>Created with Sketch.</desc>
    <g id="phone-and-comp-mockup" stroke="none" stroke-width="1" fill="none" fill-rule="evenodd">
        <g id="macbook_pro_15inches-copy-3" transform="translate(-263.000000, -191.000000)" fill-rule="nonzero">
            <g id="mac" transform="translate(263.000000, 193.000000)">
                <path d="M111.638852,2.53723704e-13 L780.361148,2.55795385e-13 C789.276335,2.54157692e-13 792.509198,0.928256111 795.768457,2.67132704 C799.027716,4.41439796 801.585602,6.97228371 803.328673,10.231543 C805.071744,13.4908022 806,16.7236646 806,25.638852 L806,469.052804 C806,475.293435 805.350221,477.556438 804.130071,479.83792 C802.909921,482.119401 801.119401,483.909921 798.83792,485.130071 C796.556438,486.350221 794.293435,487 788.052804,487 L103.947196,487 C97.7065652,487 95.4435616,486.350221 93.1620801,485.130071 C90.8805986,483.909921 89.0900786,482.119401 87.8699289,479.83792 C86.6497793,477.556438 86,475.293435 86,469.052804 L86,25.638852 C86,16.7236646 86.9282561,13.4908022 88.671327,10.231543 C90.414398,6.97228371 92.9722837,4.41439796 96.231543,2.67132704 C99.4908022,0.928256111 102.723665,2.55361398e-13 111.638852,2.53723704e-13 Z M104,26 L104,454 L788,454 L788,26 L104,26 Z" id="Combined-Shape" stroke="#CCCCCC" stroke-width="3" fill="#FFFFFF"></path>
                <path d="M891.49353,492.719208 C891.517947,493.83518 891.400879,495.924805 889.64502,496.621826 C888.145596,497.21705 828.35091,503.807664 819.598376,503.829093 L446,504.792741 L446,494 L891.49353,492.719208 Z M0.504667427,493 L445.998198,494.280792 L445.998198,504.79 L72.3998217,504.109885 C63.6472875,504.088456 3.8526013,497.497843 2.35317817,496.902618 C0.597318794,496.205597 0.480251052,494.115972 0.504667427,493 Z" id="Combined-Shape" fill="#CCCCCC"></path>
                <path d="M447,481 L889,481 C889.552285,481 890,481.447715 890,482 L890,493 C890,493.552285 889.552285,494 889,494 L447,494 L3,494 C2.44771525,494 2,493.552285 2,493 L2,485 C2,482.790861 3.790861,481 6,481 L383.208984,481 L447,481 Z" id="Combined-Shape" stroke="#CCCCCC" stroke-width="3" fill="#FFFFFF"></path>
                <path d="M510,482.176454 C508.067826,486.742422 503.409829,489 497.97062,489 L396.102419,489 C390.593406,489 385.885784,486.65928 384,482" id="Path" fill="#CCCCCC"></path>
                <circle id="Oval" fill="#CCCCCC" cx="440" cy="14" r="4"></circle>
            </g>
        </g>
    </g>
</svg>